<svg xmlns="http://www.w3.org/2000/svg" viewBox="0 0 113.39 113.39"><defs><style>.cls-1,.cls-2{fill:none;stroke-linecap:round;stroke-linejoin:round;}.cls-1{stroke:#fff;}.cls-2{stroke:#39b7b4;}.cls-2,.cls-3{stroke-width:3px;}.cls-3{fill:#39b7b4;stroke:#3cb8b4;stroke-miterlimit:10;}</style></defs><title>icono-diente</title><g id="L1"><g id="LWPOLYLINE"><polyline class="cls-1" points="11.23 20.28 36.49 28.23 40.09 50.03 34.72 67.19 18.95 52.9"/></g><g id="LWPOLYLINE-2" data-name="LWPOLYLINE"><polyline class="cls-1" points="40.98 49.76 68.12 49.98 64.69 31.8 36.49 27.95"/></g><g id="LWPOLYLINE-3" data-name="LWPOLYLINE"><line class="cls-1" x1="40.09" y1="50.03" x2="64.69" y2="32.08"/></g><g id="LWPOLYLINE-4" data-name="LWPOLYLINE"><polyline class="cls-1" points="56.59 12.86 64.69 32.08 97.71 13.42"/></g><g id="LWPOLYLINE-5" data-name="LWPOLYLINE"><line class="cls-1" x1="36.49" y1="28.23" x2="56.59" y2="12.86"/></g><g id="LWPOLYLINE-6" data-name="LWPOLYLINE"><line class="cls-1" x1="36.49" y1="28.23" x2="32.8" y2="5.64"/></g><g id="LWPOLYLINE-7" data-name="LWPOLYLINE"><line class="cls-1" x1="36.49" y1="28.23" x2="18.79" y2="52.74"/></g><g id="LWPOLYLINE-8" data-name="LWPOLYLINE"><polyline class="cls-1" points="24.54 86.71 49.03 82.76 34.72 67.19 24.48 86.5"/></g><g id="LWPOLYLINE-9" data-name="LWPOLYLINE"><polyline class="cls-1" points="40.09 50.03 61.27 73.45 68.12 50.25 77.91 74.48 91.4 62.77 68.06 50.25 102.15 36.85 64.69 32.08"/></g><g id="LWPOLYLINE-10" data-name="LWPOLYLINE"><polyline class="cls-1" points="77.91 74.48 85.74 93.95 64.15 90.7 77.91 74.48 61.27 73.45"/></g><g id="LWPOLYLINE-11" data-name="LWPOLYLINE"><polyline class="cls-1" points="64.15 90.7 67.67 107.75 85.74 93.95"/></g><g id="LWPOLYLINE-12" data-name="LWPOLYLINE"><polyline class="cls-1" points="49.03 82.76 45.5 107.75 24.48 86.5"/></g><g id="LWPOLYLINE-13" data-name="LWPOLYLINE"><line class="cls-1" x1="64.69" y1="32.08" x2="78.15" y2="5.74"/></g><line class="cls-1" x1="34.72" y1="67.18" x2="61.27" y2="73.45"/></g><g id="L2"><g id="ARC"><path class="cls-2" d="M64.15,79.39V102a6.42,6.42,0,0,0,10.22,5.17A38.69,38.69,0,0,0,90.11,74.33l0,1.45A64.18,64.18,0,0,1,100,41.2,23.2,23.2,0,0,0,78.15,5.74"/></g><g id="ARC-2" data-name="ARC"><path class="cls-2" d="M76.3,16.79a12.45,12.45,0,0,1-14.66-.46A51.44,51.44,0,0,0,35,5.74,23.21,23.21,0,0,0,13.16,41.2,64.19,64.19,0,0,1,23,75.78l0-1.45A38.72,38.72,0,0,0,38.8,107.19,6.43,6.43,0,0,0,49,102V79.39a7.56,7.56,0,0,1,15.12,0,7.56,7.56,0,0,0-15.12,0"/></g><g id="ARC-3" data-name="ARC"><path class="cls-2" d="M78.15,5.74a51.42,51.42,0,0,0-21.56,7.12"/></g></g><g id="C1"><g id="CIRCLE"><path class="cls-3" d="M16.15,52.9A2.81,2.81,0,1,1,19,55.7a2.81,2.81,0,0,1-2.8-2.8Z"/></g><g id="CIRCLE-2" data-name="CIRCLE"><path class="cls-3" d="M53.78,12.86a2.81,2.81,0,1,1,2.81,2.81,2.8,2.8,0,0,1-2.81-2.81Z"/></g><g id="CIRCLE-3" data-name="CIRCLE"><path class="cls-3" d="M99.35,36.85a2.81,2.81,0,1,1,2.8,2.81,2.8,2.8,0,0,1-2.8-2.81Z"/></g><g id="CIRCLE-4" data-name="CIRCLE"><path class="cls-3" d="M95.12,13.66a2.81,2.81,0,1,1,2.81,2.81,2.81,2.81,0,0,1-2.81-2.81Z"/></g><g id="CIRCLE-5" data-name="CIRCLE"><path class="cls-3" d="M88.6,62.77a2.8,2.8,0,1,1,2.8,2.8,2.8,2.8,0,0,1-2.8-2.8Z"/></g><g id="CIRCLE-6" data-name="CIRCLE"><path class="cls-3" d="M82.94,94a2.8,2.8,0,1,1,2.8,2.8,2.8,2.8,0,0,1-2.8-2.8Z"/></g><g id="CIRCLE-7" data-name="CIRCLE"><path class="cls-3" d="M64.87,107.75a2.8,2.8,0,1,1,2.8,2.8,2.8,2.8,0,0,1-2.8-2.8Z"/></g><g id="CIRCLE-8" data-name="CIRCLE"><path class="cls-3" d="M61.34,90.7a2.81,2.81,0,1,1,2.81,2.81,2.8,2.8,0,0,1-2.81-2.81Z"/></g><g id="CIRCLE-9" data-name="CIRCLE"><path class="cls-3" d="M58.47,73.45a2.8,2.8,0,1,1,2.8,2.8,2.8,2.8,0,0,1-2.8-2.8Z"/></g><g id="CIRCLE-10" data-name="CIRCLE"><path class="cls-3" d="M46.22,82.76A2.81,2.81,0,1,1,49,85.57a2.81,2.81,0,0,1-2.81-2.81Z"/></g><g id="CIRCLE-11" data-name="CIRCLE"><path class="cls-3" d="M42.7,107.75a2.81,2.81,0,1,1,2.8,2.8,2.81,2.81,0,0,1-2.8-2.8Z"/></g><g id="CIRCLE-12" data-name="CIRCLE"><path class="cls-3" d="M21.67,86.5a2.81,2.81,0,1,1,2.8,2.8,2.81,2.81,0,0,1-2.8-2.8Z"/></g><g id="CIRCLE-13" data-name="CIRCLE"><path class="cls-3" d="M8.43,20.28a2.81,2.81,0,1,1,2.8,2.8,2.81,2.81,0,0,1-2.8-2.8Z"/></g><g id="CIRCLE-14" data-name="CIRCLE"><path class="cls-3" d="M30,5.64a2.8,2.8,0,1,1,2.8,2.8A2.8,2.8,0,0,1,30,5.64Z"/></g><g id="CIRCLE-15" data-name="CIRCLE"><path class="cls-3" d="M33.69,28.23a2.8,2.8,0,1,1,2.8,2.8,2.8,2.8,0,0,1-2.8-2.8Z"/></g><g id="CIRCLE-16" data-name="CIRCLE"><path class="cls-3" d="M31.91,67.18A2.81,2.81,0,1,1,34.72,70a2.81,2.81,0,0,1-2.81-2.81Z"/></g><g id="CIRCLE-17" data-name="CIRCLE"><path class="cls-3" d="M37.28,50a2.81,2.81,0,1,1,2.81,2.81A2.81,2.81,0,0,1,37.28,50Z"/></g><g id="CIRCLE-18" data-name="CIRCLE"><path class="cls-3" d="M61.89,32.08a2.8,2.8,0,1,1,2.8,2.81,2.8,2.8,0,0,1-2.8-2.81Z"/></g><g id="CIRCLE-19" data-name="CIRCLE"><path class="cls-3" d="M65.32,50.25a2.81,2.81,0,1,1,2.8,2.81,2.81,2.81,0,0,1-2.8-2.81Z"/></g><g id="CIRCLE-20" data-name="CIRCLE"><path class="cls-3" d="M75.1,74.48a2.81,2.81,0,1,1,2.81,2.81,2.81,2.81,0,0,1-2.81-2.81Z"/></g><g id="CIRCLE-21" data-name="CIRCLE"><path class="cls-3" d="M75.35,5.74a2.81,2.81,0,1,1,2.8,2.81,2.81,2.81,0,0,1-2.8-2.81Z"/></g></g></svg>